<svg width="21" height="20" viewBox="0 0 21 20" fill="none" xmlns="http://www.w3.org/2000/svg">
<path d="M7.86426 12C8.16426 12 8.36426 11.8 8.36426 11.5C8.36426 11.2 8.16426 11 7.86426 11C7.56426 11 7.36426 11.2 7.36426 11.5C7.36426 11.8 7.56426 12 7.86426 12Z" fill="black"/>
<path d="M17.1143 4H15.1143V2H14.1143V4H6.11426V2H5.11426V4H3.11426C2.51426 4 2.11426 4.4 2.11426 5V16C2.11426 16.5 2.51426 17 3.11426 17H17.1143C17.6143 17 18.1143 16.5 18.1143 16V5C18.1143 4.4 17.6143 4 17.1143 4ZM17.1143 16H3.11426V9H17.1143V16ZM3.11426 8V5H5.11426V7H6.11426V5H14.1143V7H15.1143V5H17.1143V8H3.11426Z" fill="black"/>
<path d="M10.1143 12C10.4143 12 10.6143 11.8 10.6143 11.5C10.6143 11.2 10.4143 11 10.1143 11C9.81426 11 9.61426 11.2 9.61426 11.5C9.61426 11.8 9.81426 12 10.1143 12Z" fill="black"/>
<path d="M12.3643 12C12.6643 12 12.8643 11.8 12.8643 11.5C12.8643 11.2 12.6643 11 12.3643 11C12.0643 11 11.8643 11.2 11.8643 11.5C11.8643 11.8 12.0643 12 12.3643 12Z" fill="black"/>
<path d="M7.86426 13C7.56426 13 7.36426 13.2 7.36426 13.5C7.36426 13.8 7.56426 14 7.86426 14C8.16426 14 8.36426 13.8 8.36426 13.5C8.36426 13.2 8.16426 13 7.86426 13Z" fill="black"/>
<path d="M5.61426 12C5.91426 12 6.11426 11.8 6.11426 11.5C6.11426 11.2 5.91426 11 5.61426 11C5.31426 11 5.11426 11.2 5.11426 11.5C5.11426 11.8 5.31426 12 5.61426 12Z" fill="black"/>
<path d="M5.61426 13C5.31426 13 5.11426 13.2 5.11426 13.5C5.11426 13.8 5.31426 14 5.61426 14C5.91426 14 6.11426 13.8 6.11426 13.5C6.11426 13.2 5.91426 13 5.61426 13Z" fill="black"/>
<path d="M10.1143 13C9.81426 13 9.61426 13.2 9.61426 13.5C9.61426 13.8 9.81426 14 10.1143 14C10.4143 14 10.6143 13.8 10.6143 13.5C10.6143 13.2 10.4143 13 10.1143 13Z" fill="black"/>
<path d="M12.3643 13C12.0643 13 11.8643 13.2 11.8643 13.5C11.8643 13.8 12.0643 14 12.3643 14C12.6643 14 12.8643 13.8 12.8643 13.5C12.8643 13.2 12.6643 13 12.3643 13Z" fill="black"/>
<path d="M14.6143 12C14.9143 12 15.1143 11.8 15.1143 11.5C15.1143 11.2 14.9143 11 14.6143 11C14.3143 11 14.1143 11.2 14.1143 11.5C14.1143 11.8 14.3143 12 14.6143 12Z" fill="black"/>
<path d="M14.6143 13C14.3143 13 14.1143 13.2 14.1143 13.5C14.1143 13.8 14.3143 14 14.6143 14C14.9143 14 15.1143 13.8 15.1143 13.5C15.1143 13.2 14.9143 13 14.6143 13Z" fill="black"/>
</svg>
